<?xml version="1.0" encoding="utf-8"?>
<!-- Generator: Adobe Illustrator 16.0.0, SVG Export Plug-In . SVG Version: 6.00 Build 0)  -->
<!DOCTYPE svg PUBLIC "-//W3C//DTD SVG 1.0//EN" "http://www.w3.org/TR/2001/REC-SVG-20010904/DTD/svg10.dtd">
<svg version="1.0" id="Layer_1" xmlns="http://www.w3.org/2000/svg" xmlns:xlink="http://www.w3.org/1999/xlink" x="0px" y="0px"
	 width="190px" height="332px" viewBox="0 0 190 332" enable-background="new 0 0 190 332" xml:space="preserve">
<g>
	<path fill="#FFFFFF" d="M44.869,53.205h22.329v4.8H50.14v8.186h15.128v4.8H50.14v12.214h-5.271V53.205z"/>
	<path fill="#FFFFFF" d="M131.372,132.386c-2.314,0-4.429-0.407-6.342-1.222c-1.915-0.814-3.558-1.921-4.93-3.321
		c-1.371-1.399-2.442-3.035-3.214-4.907c-0.771-1.871-1.157-3.864-1.157-5.979v-0.086c0-2.114,0.386-4.106,1.157-5.979
		c0.771-1.871,1.856-3.514,3.257-4.928c1.4-1.415,3.057-2.536,4.972-3.365c1.914-0.828,4.028-1.243,6.343-1.243
		s4.428,0.407,6.343,1.221c1.914,0.814,3.558,1.922,4.929,3.322c1.371,1.399,2.443,3.036,3.214,4.907
		c0.771,1.871,1.157,3.864,1.157,5.978v0.086c0,2.115-0.386,4.107-1.157,5.979c-0.771,1.872-1.857,3.515-3.257,4.929
		c-1.4,1.414-3.058,2.536-4.971,3.364C135.801,131.971,133.687,132.386,131.372,132.386z M131.458,127.5
		c1.485,0,2.85-0.279,4.093-0.837c1.243-0.559,2.308-1.311,3.192-2.255c0.886-0.945,1.578-2.062,2.079-3.35
		c0.499-1.288,0.75-2.662,0.75-4.123v-0.086c0-1.46-0.251-2.841-0.75-4.144c-0.501-1.303-1.2-2.434-2.101-3.393
		c-0.899-0.959-1.979-1.725-3.235-2.297c-1.257-0.573-2.629-0.859-4.114-0.859c-1.486,0-2.85,0.279-4.093,0.838
		s-2.308,1.317-3.192,2.276c-0.887,0.958-1.579,2.082-2.078,3.37c-0.501,1.289-0.75,2.663-0.75,4.123v0.085
		c0,1.461,0.249,2.835,0.75,4.123c0.499,1.288,1.199,2.419,2.1,3.393s1.979,1.739,3.235,2.298
		C128.601,127.221,129.972,127.5,131.458,127.5z"/>
	<path fill="#FFFFFF" d="M44.819,150.955h5.271v15.085l14.271-15.085h6.515l-12.515,12.9l13.071,17.1h-6.429l-10.242-13.5
		l-4.672,4.799v8.701h-5.271V150.955z"/>
	<path fill="#FFFFFF" d="M131.256,230.01c-1.943,0-3.701-0.279-5.271-0.836c-1.572-0.557-2.914-1.393-4.028-2.506
		c-1.114-1.115-1.972-2.492-2.571-4.137c-0.601-1.643-0.9-3.549-0.9-5.721v-17.271h5.271v17.057c0,2.801,0.671,4.922,2.014,6.365
		c1.343,1.441,3.2,2.164,5.571,2.164c2.343,0,4.186-0.693,5.529-2.08c1.342-1.385,2.014-3.463,2.014-6.234v-17.271h5.271v17.014
		c0,2.229-0.308,4.186-0.921,5.871c-0.615,1.688-1.479,3.094-2.594,4.223c-1.114,1.129-2.464,1.971-4.05,2.527
		C135.006,229.73,133.227,230.01,131.256,230.01z"/>
	<path fill="#FFFFFF" d="M74.232,279.07c-2.313,0-4.528-0.393-6.643-1.178s-4.071-1.994-5.871-3.621l3.172-3.771
		c1.457,1.258,2.936,2.221,4.436,2.893s3.178,1.006,5.035,1.006c1.629,0,2.921-0.35,3.879-1.049
		c0.957-0.699,1.436-1.607,1.436-2.721v-0.086c0-0.543-0.093-1.021-0.278-1.436c-0.187-0.414-0.529-0.809-1.029-1.18
		s-1.186-0.713-2.057-1.027c-0.872-0.314-2.008-0.629-3.407-0.943c-1.601-0.371-3.021-0.793-4.265-1.266
		c-1.242-0.471-2.285-1.041-3.128-1.713s-1.486-1.492-1.929-2.465c-0.443-0.971-0.664-2.143-0.664-3.514v-0.086
		c0-1.285,0.257-2.465,0.771-3.535c0.514-1.072,1.221-1.986,2.121-2.744c0.9-0.756,1.979-1.35,3.235-1.777
		c1.257-0.43,2.629-0.644,4.114-0.644c2.2,0,4.179,0.321,5.936,0.964c1.758,0.644,3.407,1.58,4.95,2.807l-2.828,3.986
		c-1.372-1-2.729-1.764-4.071-2.293c-1.344-0.527-2.7-0.793-4.071-0.793c-1.543,0-2.743,0.344-3.601,1.029
		c-0.856,0.686-1.285,1.529-1.285,2.529v0.084c0,0.572,0.1,1.08,0.3,1.521c0.199,0.443,0.571,0.844,1.114,1.201
		c0.542,0.357,1.271,0.693,2.186,1.006c0.914,0.316,2.1,0.645,3.558,0.986c1.57,0.4,2.957,0.844,4.156,1.328
		c1.2,0.486,2.207,1.08,3.021,1.779c0.814,0.701,1.421,1.514,1.821,2.443c0.4,0.928,0.601,2.008,0.601,3.234v0.086
		c0,1.4-0.265,2.658-0.793,3.771c-0.529,1.115-1.265,2.057-2.207,2.828c-0.943,0.771-2.072,1.357-3.386,1.758
		C77.247,278.871,75.804,279.07,74.232,279.07z"/>
	<path fill="#FFFFFF" d="M182.167,8v316h-174V8H182.167 M190.167,0h-190v332h190V0L190.167,0z"/>
</g>
</svg>
